<?xml version="1.0" encoding="utf-8"?>
<!-- Generator: Adobe Illustrator 27.9.0, SVG Export Plug-In . SVG Version: 6.00 Build 0)  -->
<svg version="1.1" id="Layer_1" xmlns="http://www.w3.org/2000/svg" xmlns:xlink="http://www.w3.org/1999/xlink" x="0px" y="0px"
	 viewBox="0 0 1080 1080" style="enable-background:new 0 0 1080 1080;" xml:space="preserve">
<style type="text/css">
	.st0{clip-path:url(#SVGID_00000108281933275310029220000000456992624943869103_);}
	.st1{opacity:0.4;fill:#E1F3FC;}
	.st2{opacity:0.6;fill:#E1F3FC;}
	.st3{opacity:0.8;fill:#E1F3FC;}
	.st4{fill:#FFFFFF;}
	.st5{fill:#EB008B;}
	.st6{clip-path:url(#SVGID_00000070816903992649163840000010128665897044820901_);}
	.st7{fill:#3E4C5C;}
	.st8{clip-path:url(#SVGID_00000067207114272368961100000002900785286174429599_);}
	.st9{fill:#8C9BAD;}
	.st10{fill:#111B26;}
	.st11{clip-path:url(#SVGID_00000080905093157464260570000010674918401285910958_);}
	.st12{clip-path:url(#SVGID_00000100373372628831171570000002979333728499283381_);}
	.st13{clip-path:url(#SVGID_00000173122245916824407850000012667362004741834425_);}
</style>
<g>
	<g>
		<defs>
			
				<ellipse id="SVGID_1_" transform="matrix(0.7071 -0.7071 0.7071 0.7071 -281.9457 399.3225)" cx="341.05" cy="540" rx="272.95" ry="272.95"/>
		</defs>
		<use xlink:href="#SVGID_1_"  style="overflow:visible;fill-rule:evenodd;clip-rule:evenodd;fill:#3C4A5C;"/>
		<clipPath id="SVGID_00000075150212077054130580000014733809271903471018_">
			<use xlink:href="#SVGID_1_"  style="overflow:visible;"/>
		</clipPath>
		<g style="clip-path:url(#SVGID_00000075150212077054130580000014733809271903471018_);">
			<g>
				<path class="st1" d="M366.74,642.24C180.26,680.89,20.49,670.79,9.9,619.68S141.89,495.8,328.38,457.15
					s346.25-28.56,356.85,22.55S553.23,603.58,366.74,642.24z M632.39,473.24c-8.18-39.45-143.88-44.67-303.1-11.66
					S47.63,553.31,55.81,592.76c8.18,39.45,143.88,44.67,303.1,11.66C518.12,571.41,640.57,512.68,632.39,473.24z"/>
				<path class="st2" d="M353.55,578.61c-131.95,27.35-244.23,23.92-250.78-7.66c-6.55-31.59,95.11-79.36,227.07-106.72
					c131.95-27.35,244.23-23.92,250.78,7.66C587.17,503.48,485.51,551.26,353.55,578.61z M529.22,472.32
					c-4.92-23.72-93.77-25.37-198.46-3.67s-185.56,58.52-180.65,82.25c4.92,23.72,93.77,25.37,198.46,3.67
					C453.26,532.87,534.14,496.05,529.22,472.32z"/>
				<path class="st3" d="M343.13,528.31c-77.42,16.05-142.85,16.2-146.13,0.33c-3.29-15.86,56.81-41.73,134.23-57.78
					c77.42-16.05,142.85-16.2,146.13-0.33C480.64,486.39,420.55,512.26,343.13,528.31z M425.95,470.96
					c-1.66-8-43.66-6.07-93.81,4.33s-89.46,25.31-87.81,33.32c1.66,8,43.66,6.07,93.81-4.33
					C388.3,493.88,427.61,478.96,425.95,470.96z"/>
			</g>
			<g>
				<g>
					<path class="st4" d="M201.29,442.77c28.23-13.73,56.72-21.51,74.74-21.51c35.95,0,50.84,22.6,50.84,49.3
						c0,22.08-9.24,55.47-18.49,86.28l-21.57,73.96c25.16-6.16,42.11-11.3,65.74-18.49c8.22,9.76,14.38,26.19,16.43,38.52
						c-31.33,22.08-78.06,40.06-107.34,40.06c-35.44,0-51.87-18.49-51.87-43.65c0-16.95,2.57-28.76,12.33-60.09
						c9.76-33.38,28.31-77.23,44.23-113.18c-16.24,4.13-28.96,7.96-43.04,12.42C214.63,474.24,205.21,456.2,201.29,442.77z
						 M264.22,343.2c6.16-29.79,26.71-44.17,55.98-44.17c29.79,0,50.84,8.73,44.68,38c-6.16,29.27-26.71,44.68-55.98,44.68
						C279.63,381.71,258.06,371.96,264.22,343.2z"/>
				</g>
				<g>
					<path class="st5" d="M426.46,452.85c-4.62,18.49-9.24,40.06-10.78,61.12c25.17,0,53.41,0,77.04,0.51
						c-1.03,15.92-8.22,45.19-13.87,60.6c-28.25-0.51-49.3-1.03-72.93-3.08l-12.82,75.63c-15.41,82.69-57.52,138.15-170.51,152.53
						c-8.73-13.87-14.89-40.57-14.38-61.12c31.33-10.78,62.14-16.95,91.93-14.89c10.79-34.92,19-70.87,24.65-102.72l8.71-53.54
						c-22.08,1.03-38.52,2.57-67.28,1.54c0.51-11.3,6.68-44.68,10.27-55.47c19.52-1.03,42.11-0.51,66.76-0.51
						c7.19-73.44,50.33-133.02,154.59-142.77c12.84,14.38,19.52,40.06,18.49,64.71C489.63,446.68,462.41,452.85,426.46,452.85z"/>
				</g>
				<g>
					<path class="st4" d="M305.15,626.12c16.16-4.31,29.96-8.5,47.41-13.81c8.22,9.76,14.38,26.19,16.43,38.52
						c-18.66,13.15-42.78,24.85-65.43,32.16L305.15,626.12z M264.22,343.2c6.16-29.79,26.71-44.17,55.98-44.17
						c29.79,0,50.84,8.73,44.68,38c-6.16,29.27-26.71,44.68-55.98,44.68C279.63,381.71,258.06,371.96,264.22,343.2z"/>
				</g>
			</g>
			<g>
				<defs>
					<path id="SVGID_00000022529822472279264250000010910050128331323525_" d="M421.99,472.06l-74.27,14.43
						c-2.09,8.72-3.56,17.73-4.46,26.96c-7.84,0-15.47-0.05-22.86-0.09c1.87-7.83,3.45-15.39,4.58-22.45l-72.1,14.01
						c-11.98,28.24-23.7,57.99-30.79,82.23c-9.76,31.33-12.33,43.14-12.33,60.09c0,11.59,3.49,21.75,10.71,29.35l171.98-25.72
						c0.21-1.08,0.42-2.15,0.62-3.24L405.92,572c23.62,2.05,44.68,2.57,72.93,3.08c5.65-15.41,12.84-44.68,13.87-60.6
						c-23.62-0.51-51.87-0.51-77.04-0.51C416.71,499.86,419.12,485.54,421.99,472.06z M324.93,620.59
						c-0.65,0.19-1.29,0.38-1.94,0.56c-0.16,0.05-0.33,0.09-0.49,0.14c-0.84,0.24-1.68,0.48-2.53,0.72
						c-0.18,0.05-0.36,0.1-0.54,0.15c-0.71,0.2-1.43,0.41-2.14,0.61c-0.19,0.05-0.37,0.11-0.56,0.16c-0.85,0.24-1.7,0.48-2.56,0.72
						c-0.15,0.04-0.3,0.08-0.46,0.13c-0.74,0.21-1.49,0.41-2.24,0.62c-0.2,0.05-0.39,0.11-0.59,0.16c-0.87,0.24-1.74,0.48-2.62,0.71
						c-0.14,0.04-0.28,0.08-0.42,0.11c-0.77,0.21-1.54,0.41-2.31,0.62c-5.84,1.56-11.98,3.14-18.71,4.78l17.93-61.46
						c9.56-0.39,18.56-0.97,28.76-1.45L324.93,620.59z"/>
				</defs>
				<clipPath id="SVGID_00000152964667615330116350000000355512827663260546_">
					<use xlink:href="#SVGID_00000022529822472279264250000010910050128331323525_"  style="overflow:visible;"/>
				</clipPath>
				<g style="clip-path:url(#SVGID_00000152964667615330116350000000355512827663260546_);">
					<path class="st1" d="M366.74,642.24C180.26,680.89,20.49,670.79,9.9,619.68S141.89,495.8,328.38,457.15
						s346.25-28.56,356.85,22.55S553.23,603.58,366.74,642.24z M632.39,473.24c-8.18-39.45-143.88-44.67-303.1-11.66
						S47.63,553.31,55.81,592.76c8.18,39.45,143.88,44.67,303.1,11.66C518.12,571.41,640.57,512.68,632.39,473.24z"/>
					<path class="st2" d="M353.55,578.61c-131.95,27.35-244.23,23.92-250.78-7.66c-6.55-31.59,95.11-79.36,227.07-106.72
						c131.95-27.35,244.23-23.92,250.78,7.66C587.17,503.48,485.51,551.26,353.55,578.61z M529.22,472.32
						c-4.92-23.72-93.77-25.37-198.46-3.67s-185.56,58.52-180.65,82.25c4.92,23.72,93.77,25.37,198.46,3.67
						C453.26,532.87,534.14,496.05,529.22,472.32z"/>
					<path class="st3" d="M343.13,528.31c-77.42,16.05-142.85,16.2-146.13,0.33c-3.29-15.86,56.81-41.73,134.23-57.78
						c77.42-16.05,142.85-16.2,146.13-0.33C480.64,486.39,420.55,512.26,343.13,528.31z M425.95,470.96
						c-1.66-8-43.66-6.07-93.81,4.33s-89.46,25.31-87.81,33.32c1.66,8,43.66,6.07,93.81-4.33
						C388.3,493.88,427.61,478.96,425.95,470.96z"/>
				</g>
			</g>
		</g>
	</g>
	<g>
		<path class="st7" d="M665.41,580.66h-13.94V487.7h13.94V580.66z"/>
		<path class="st7" d="M712.1,580.66l-20.21-57.42v57.42h-12.96V487.7H693l19.09,55.19V487.7h12.96v92.96H712.1z"/>
		<path class="st7" d="M762,580.66h-13.94v-80h-14.77V487.7h43.76v12.96H762V580.66z"/>
		<path class="st7" d="M799.35,580.66h-13.94V487.7h13.94V580.66z"/>
		<path class="st7" d="M850.36,500.66h-23.55v25.37h17.14v12.96h-17.14v41.67h-13.94V487.7h37.49V500.66z"/>
		<path class="st7" d="M870.71,560.18l-3.21,20.49h-13.8l15.19-92.96h18.12l16.17,92.96h-14.36l-3.21-20.49H870.71z M877.96,510.14
			l-5.3,37.07h10.87L877.96,510.14z"/>
		<path class="st7" d="M942.49,518.5c0-6.13-0.14-9.62-0.28-11.85c-0.56-4.46-3.48-7.39-7.53-7.39c-3.48,0-6.27,2.51-7.25,6.41
			c-0.42,1.81-0.56,6.55-0.56,13.8v29.55c0,9.34,0.28,12.96,0.98,15.05c1.25,3.21,3.76,5.02,6.83,5.02c4.04,0,6.97-3.21,7.39-7.81
			c0.28-2.51,0.42-8.64,0.42-13.52h14.08v5.3c0,9.76-0.56,13.1-3.21,18.12c-3.48,6.83-10.31,10.87-18.54,10.87
			c-6.55,0-12.54-2.65-16.31-7.39c-4.6-5.57-5.58-10.17-5.58-24.67v-31.5c0-14.63,0.98-19.23,5.58-24.81
			c3.76-4.74,9.62-7.39,16.31-7.39c8.08,0,15.05,3.76,18.54,10.17c2.65,4.6,3.21,7.94,3.21,17v5.02H942.49z"/>
		<path class="st7" d="M1006.46,500.66h-23.97v25.37h17.28v12.96h-17.28v28.71h23.97v12.96h-37.91V487.7h37.91V500.66z"/>
	</g>
</g>
</svg>
