<?xml version="1.0" encoding="UTF-8" standalone="no"?>
<svg version="1.1"
  xmlns="http://www.w3.org/2000/svg"
  xmlns:xlink="http://www.w3.org/1999/xlink" width="772.01146" height="772.01146" viewBox="1117.99365 369.24396 772.01146 772.01146">
  <g id="document" fill="#00000000" fill-rule="nonzero" font-family="none" font-weight="none" font-size="none">
    <rect x="1745.72174" y="347.57143" transform="scale(0.66104,1.16667)" width="1058.93" height="600" id="Shape-1-1"/>
  </g>
  <g fill="none" fill-rule="none" stroke="none" stroke-width="1" stroke-linecap="butt" stroke-linejoin="miter" stroke-miterlimit="10" font-family="none" font-weight="none" font-size="none">
    <g id="stage">
      <g id="layer1-1">
        <g id="Group-1">
          <g id="Group-1-1">
            <g id="Group-1-2">
              <ellipse cx="529.45128" cy="1597.54632" transform="rotate(-45) scale(0.99999,0.99999)" rx="272.95" ry="272.95" id="Shape-1" fill="#3c4a5c" fill-rule="evenodd"/>
              <g id="Group-1-3" fill-rule="nonzero">
                <g id="Group-1-4" fill="#e1f3fc">
                  <path d="M1529.69687,857.49383c-186.49,38.65 -346.26,28.55 -356.85,-22.56c-10.59,-51.11 131.99,-123.88 318.48,-162.53c186.49,-38.65 346.25,-28.56 356.85,22.55c10.6,51.11 -132,123.88 -318.48,162.54zM1795.34687,688.49383c-8.18,-39.45 -143.88,-44.67 -303.1,-11.66c-159.22,33.01 -281.67,91.73 -273.49,131.18c8.18,39.45 143.88,44.67 303.1,11.66c159.22,-33.01 281.66,-91.74 273.49,-131.18z" id="CompoundPath-1" opacity="0.4"/>
                  <path d="M1516.50687,793.86383c-131.95,27.35 -244.23,23.92 -250.78,-7.66c-6.55,-31.59 95.11,-79.36 227.07,-106.72c131.95,-27.35 244.23,-23.92 250.78,7.66c6.54,31.59 -95.12,79.37 -227.07,106.72zM1692.16687,687.57383c-4.92,-23.72 -93.77,-25.37 -198.46,-3.67c-104.69,21.7 -185.56,58.52 -180.65,82.25c4.92,23.72 93.77,25.37 198.46,3.67c104.69,-21.7 185.57,-58.52 180.65,-82.25z" id="CompoundPath-1-1" opacity="0.6"/>
                  <path d="M1506.07687,743.56383c-77.42,16.05 -142.85,16.2 -146.13,0.33c-3.29,-15.86 56.81,-41.73 134.23,-57.78c77.42,-16.05 142.85,-16.2 146.13,-0.33c3.29,15.86 -56.81,41.73 -134.23,57.78zM1588.89687,686.21383c-1.66,-8 -43.66,-6.07 -93.81,4.33c-50.15,10.4 -89.46,25.31 -87.81,33.32c1.66,8 43.66,6.07 93.81,-4.33c50.16,-10.4 89.47,-25.32 87.81,-33.32z" id="CompoundPath-1-2" opacity="0.8"/>
                </g>
                <g id="Group-1-5">
                  <g id="Group-1-6" fill="#8c9bad">
                    <path d="M1364.23687,658.02383c28.23,-13.73 56.72,-21.51 74.74,-21.51c35.95,0 50.84,22.6 50.84,49.3c0,22.08 -9.24,55.47 -18.49,86.28l-21.57,73.96c25.16,-6.16 42.11,-11.3 65.74,-18.49c8.22,9.76 14.38,26.19 16.43,38.52c-31.33,22.08 -78.06,40.06 -107.34,40.06c-35.44,0 -51.87,-18.49 -51.87,-43.65c0,-16.95 2.57,-28.76 12.33,-60.09c9.76,-33.38 28.31,-77.23 44.23,-113.18c-16.24,4.13 -28.96,7.96 -43.04,12.42c-8.65,-12.15 -18.08,-30.19 -22,-43.62zM1427.16687,558.45383c6.16,-29.79 26.71,-44.17 55.98,-44.17c29.79,0 50.84,8.73 44.68,38c-6.16,29.27 -26.71,44.68 -55.98,44.68c-29.27,0 -50.84,-9.75 -44.68,-38.51z" id="CompoundPath-1-3"/>
                  </g>
                  <g id="Group-1-7" fill="#111b26">
                    <path d="M1589.41687,668.10383c-4.62,18.49 -9.24,40.06 -10.78,61.12c25.17,0 53.41,0 77.04,0.51c-1.03,15.92 -8.22,45.19 -13.87,60.6c-28.25,-0.51 -49.3,-1.03 -72.93,-3.08l-12.82,75.63c-15.41,82.69 -57.52,138.15 -170.51,152.53c-8.73,-13.87 -14.89,-40.57 -14.38,-61.12c31.33,-10.78 62.14,-16.95 91.93,-14.89c10.78,-34.92 19,-70.87 24.65,-102.72l8.71,-53.54c-22.08,1.03 -38.52,2.57 -67.28,1.54c0.51,-11.3 6.68,-44.68 10.27,-55.47c19.52,-1.03 42.11,-0.51 66.76,-0.51c7.19,-73.44 50.33,-133.02 154.59,-142.77c12.84,14.38 19.52,40.06 18.49,64.71c-26.7,11.29 -53.92,17.46 -89.87,17.46z" id="Path-1"/>
                  </g>
                  <g id="Group-1-8" fill="#8c9bad">
                    <path d="M1468.09687,841.37383c16.16,-4.31 29.96,-8.5 47.41,-13.81c8.22,9.76 14.38,26.19 16.43,38.52c-18.66,13.15 -42.78,24.85 -65.43,32.16zM1427.16687,558.45383c6.16,-29.79 26.71,-44.17 55.98,-44.17c29.79,0 50.84,8.73 44.68,38c-6.16,29.27 -26.71,44.68 -55.98,44.68c-29.27,0 -50.84,-9.75 -44.68,-38.51z" id="CompoundPath-1-4"/>
                  </g>
                </g>
                <g id="Group-1-9" fill="#e1f3fc">
                  <g id="Group-1-10">
                    <path d="M1529.69687,857.49383c-186.49,38.65 -346.26,28.55 -356.85,-22.56c-10.59,-51.11 131.99,-123.88 318.48,-162.53c186.49,-38.65 346.25,-28.56 356.85,22.55c10.6,51.11 -132,123.88 -318.48,162.54zM1795.34687,688.49383c-8.18,-39.45 -143.88,-44.67 -303.1,-11.66c-159.22,33.01 -281.67,91.73 -273.49,131.18c8.18,39.45 143.88,44.67 303.1,11.66c159.22,-33.01 281.66,-91.74 273.49,-131.18z" id="CompoundPath-1-5" opacity="0.4"/>
                    <path d="M1516.50687,793.86383c-131.95,27.35 -244.23,23.92 -250.78,-7.66c-6.55,-31.59 95.11,-79.36 227.07,-106.72c131.95,-27.35 244.23,-23.92 250.78,7.66c6.54,31.59 -95.12,79.37 -227.07,106.72zM1692.16687,687.57383c-4.92,-23.72 -93.77,-25.37 -198.46,-3.67c-104.69,21.7 -185.56,58.52 -180.65,82.25c4.92,23.72 93.77,25.37 198.46,3.67c104.69,-21.7 185.57,-58.52 180.65,-82.25z" id="CompoundPath-1-6" opacity="0.6"/>
                    <path d="M1506.07687,743.56383c-77.42,16.05 -142.85,16.2 -146.13,0.33c-3.29,-15.86 56.81,-41.73 134.23,-57.78c77.42,-16.05 142.85,-16.2 146.13,-0.33c3.29,15.86 -56.81,41.73 -134.23,57.78zM1588.89687,686.21383c-1.66,-8 -43.66,-6.07 -93.81,4.33c-50.15,10.4 -89.46,25.31 -87.81,33.32c1.66,8 43.66,6.07 93.81,-4.33c50.16,-10.4 89.47,-25.32 87.81,-33.32z" id="CompoundPath-1-7" opacity="0.8"/>
                  </g>
                </g>
              </g>
            </g>
            <g id="Group-1-11" fill="#000000" fill-rule="nonzero" font-family="ui-sans-serif, system-ui, -apple-system, BlinkMacSystemFont, &quot;Segoe UI&quot;, Roboto, &quot;Helvetica Neue&quot;, Arial, &quot;Noto Sans&quot;, sans-serif, &quot;Apple Color Emoji&quot;, &quot;Segoe UI Emoji&quot;, &quot;Segoe UI Symbol&quot;, &quot;Noto Color Emoji&quot;" font-weight="400" font-size="14" text-anchor="start"/>
            <g id="Group-1-12" fill="#eb008b" fill-rule="nonzero">
              <path d="M1625.08687,703.32383c-21.95,0.06 -41.49,13.92 -48.81,34.62h-228.13c-9.56,0 -17.31,7.75 -17.31,17.31c0,9.56 7.75,17.31 17.31,17.31h228.13c9.56,27.04 39.23,41.21 66.27,31.65c27.04,-9.56 41.21,-39.23 31.65,-66.27c-7.36,-20.8 -27.05,-34.68 -49.11,-34.62z" id="Path-1-1"/>
              <path d="M1348.14687,668.71383h20.42c9.78,26.96 39.57,40.88 66.53,31.09c14.46,-5.25 25.85,-16.64 31.09,-31.09h193.51c9.56,0 17.31,-7.75 17.31,-17.31c0,-9.56 -7.75,-17.31 -17.31,-17.31h-193.51c-9.78,-26.96 -39.57,-40.88 -66.53,-31.09c-14.46,5.25 -25.85,16.64 -31.09,31.09h-20.42c-9.56,0 -17.31,7.75 -17.31,17.31c0,9.56 7.75,17.31 17.31,17.31z" id="Path-1-2"/>
              <path d="M1659.70687,841.79383h-124.28c-9.78,-26.96 -39.57,-40.88 -66.53,-31.09c-14.46,5.25 -25.85,16.64 -31.09,31.09h-89.66c-9.56,0 -17.31,7.75 -17.31,17.31c0,9.56 7.75,17.31 17.31,17.31h89.66c9.78,26.96 39.57,40.88 66.53,31.09c14.46,-5.25 25.85,-16.64 31.09,-31.09h124.28c9.56,0 17.31,-7.75 17.31,-17.31c-0.01,-9.56 -7.76,-17.31 -17.31,-17.31z" id="Path-1-3"/>
            </g>
          </g>
        </g>
      </g>
    </g>
  </g>
</svg>