<?xml version="1.0" encoding="utf-8"?>
<!-- Generator: Adobe Illustrator 27.9.0, SVG Export Plug-In . SVG Version: 6.00 Build 0)  -->
<svg version="1.1" id="Layer_1" xmlns="http://www.w3.org/2000/svg" xmlns:xlink="http://www.w3.org/1999/xlink" x="0px" y="0px"
	 viewBox="0 0 1080 1080" style="enable-background:new 0 0 1080 1080;" xml:space="preserve">
<style type="text/css">
	.st0{clip-path:url(#SVGID_00000149346360369227071730000000868293391935937951_);}
	.st1{opacity:0.4;fill:#E1F3FC;}
	.st2{opacity:0.6;fill:#E1F3FC;}
	.st3{opacity:0.8;fill:#E1F3FC;}
	.st4{fill:#FFFFFF;}
	.st5{fill:#EB008B;}
	.st6{clip-path:url(#SVGID_00000027564614987819657760000004209852593854878647_);}
	.st7{fill:#3E4C5C;}
	.st8{clip-path:url(#SVGID_00000079445946891385213270000004572896580371545516_);}
	.st9{fill:#8C9BAD;}
	.st10{fill:#111B26;}
	.st11{clip-path:url(#SVGID_00000069366587244192157490000005945197243921888136_);}
	.st12{clip-path:url(#SVGID_00000120520613892647328280000017555269378804802435_);}
	.st13{clip-path:url(#SVGID_00000164508074391618157360000010603791596549062302_);}
</style>
<g>
	<g>
		<defs>
			
				<ellipse id="SVGID_00000160908931210794738760000007230786513284783269_" transform="matrix(0.7071 -0.7071 0.7071 0.7071 -282.088 398.9789)" cx="340.57" cy="540" rx="272.95" ry="272.95"/>
		</defs>
		
			<use xlink:href="#SVGID_00000160908931210794738760000007230786513284783269_"  style="overflow:visible;fill-rule:evenodd;clip-rule:evenodd;fill:#3C4A5C;"/>
		<clipPath id="SVGID_00000035501660783328247150000007958913367925247135_">
			<use xlink:href="#SVGID_00000160908931210794738760000007230786513284783269_"  style="overflow:visible;"/>
		</clipPath>
		<g style="clip-path:url(#SVGID_00000035501660783328247150000007958913367925247135_);">
			<g>
				<path class="st1" d="M366.26,642.24C179.77,680.89,20,670.79,9.41,619.68S141.4,495.8,327.89,457.15s346.25-28.56,356.85,22.55
					C695.33,530.81,552.74,603.58,366.26,642.24z M631.91,473.24c-8.18-39.45-143.88-44.67-303.1-11.66S47.14,553.31,55.32,592.76
					c8.18,39.45,143.88,44.67,303.1,11.66C517.64,571.41,640.08,512.68,631.91,473.24z"/>
				<path class="st2" d="M353.07,578.61c-131.95,27.35-244.23,23.92-250.78-7.66c-6.55-31.59,95.11-79.36,227.07-106.72
					c131.95-27.35,244.23-23.92,250.78,7.66C586.68,503.48,485.02,551.26,353.07,578.61z M528.73,472.32
					c-4.92-23.72-93.77-25.37-198.46-3.67s-185.56,58.52-180.65,82.25c4.92,23.72,93.77,25.37,198.46,3.67
					C452.77,532.87,533.65,496.05,528.73,472.32z"/>
				<path class="st3" d="M342.64,528.31c-77.42,16.05-142.85,16.2-146.13,0.33c-3.29-15.86,56.81-41.73,134.23-57.78
					c77.42-16.05,142.85-16.2,146.13-0.33C480.16,486.39,420.06,512.26,342.64,528.31z M425.46,470.96
					c-1.66-8-43.66-6.07-93.81,4.33s-89.46,25.31-87.81,33.32c1.66,8,43.66,6.07,93.81-4.33
					C387.81,493.88,427.12,478.96,425.46,470.96z"/>
			</g>
			<g>
				<g>
					<path class="st9" d="M200.8,442.77c28.23-13.73,56.72-21.51,74.74-21.51c35.95,0,50.84,22.6,50.84,49.3
						c0,22.08-9.24,55.47-18.49,86.28l-21.57,73.96c25.16-6.16,42.11-11.3,65.74-18.49c8.22,9.76,14.38,26.19,16.43,38.52
						c-31.33,22.08-78.06,40.06-107.34,40.06c-35.44,0-51.87-18.49-51.87-43.65c0-16.95,2.57-28.76,12.33-60.09
						c9.76-33.38,28.31-77.23,44.23-113.18c-16.24,4.13-28.96,7.96-43.04,12.42C214.15,474.24,204.72,456.2,200.8,442.77z
						 M263.73,343.2c6.16-29.79,26.71-44.17,55.98-44.17c29.79,0,50.84,8.73,44.68,38c-6.16,29.27-26.71,44.68-55.98,44.68
						C279.14,381.71,257.57,371.96,263.73,343.2z"/>
				</g>
				<g>
					<path class="st10" d="M425.98,452.85c-4.62,18.49-9.24,40.06-10.78,61.12c25.17,0,53.41,0,77.04,0.51
						c-1.03,15.92-8.22,45.19-13.87,60.6c-28.25-0.51-49.3-1.03-72.93-3.08l-12.82,75.63c-15.41,82.69-57.52,138.15-170.51,152.53
						c-8.73-13.87-14.89-40.57-14.38-61.12c31.33-10.78,62.14-16.95,91.93-14.89c10.78-34.92,19-70.87,24.65-102.72l8.71-53.54
						c-22.08,1.03-38.52,2.57-67.28,1.54c0.51-11.3,6.68-44.68,10.27-55.47c19.52-1.03,42.11-0.51,66.76-0.51
						c7.19-73.44,50.33-133.02,154.59-142.77c12.84,14.38,19.52,40.06,18.49,64.71C489.15,446.68,461.93,452.85,425.98,452.85z"/>
				</g>
				<g>
					<path class="st9" d="M304.66,626.12c16.16-4.31,29.96-8.5,47.41-13.81c8.22,9.76,14.38,26.19,16.43,38.52
						c-18.66,13.15-42.78,24.85-65.43,32.16L304.66,626.12z M263.73,343.2c6.16-29.79,26.71-44.17,55.98-44.17
						c29.79,0,50.84,8.73,44.68,38c-6.16,29.27-26.71,44.68-55.98,44.68C279.14,381.71,257.57,371.96,263.73,343.2z"/>
				</g>
			</g>
			<g>
				<defs>
					<path id="SVGID_00000089537351676268019130000008833047754897844110_" d="M421.51,472.06l-74.27,14.43
						c-2.09,8.72-3.56,17.73-4.46,26.96c-7.84,0-15.47-0.05-22.86-0.09c1.87-7.83,3.45-15.39,4.58-22.45l-72.1,14.01
						c-11.98,28.24-23.7,57.99-30.79,82.23c-9.76,31.33-12.33,43.14-12.33,60.09c0,11.59,3.49,21.75,10.71,29.35l171.98-25.72
						c0.21-1.08,0.42-2.15,0.62-3.24L405.43,572c23.62,2.05,44.68,2.57,72.93,3.08c5.65-15.41,12.84-44.68,13.87-60.6
						c-23.62-0.51-51.87-0.51-77.04-0.51C416.22,499.86,418.64,485.54,421.51,472.06z M324.44,620.59
						c-0.65,0.19-1.29,0.38-1.94,0.56c-0.16,0.05-0.33,0.09-0.49,0.14c-0.84,0.24-1.68,0.48-2.53,0.72
						c-0.18,0.05-0.36,0.1-0.54,0.15c-0.71,0.2-1.43,0.41-2.14,0.61c-0.19,0.05-0.37,0.11-0.56,0.16c-0.85,0.24-1.7,0.48-2.56,0.72
						c-0.15,0.04-0.3,0.08-0.46,0.13c-0.74,0.21-1.49,0.41-2.24,0.62c-0.2,0.05-0.39,0.11-0.59,0.16c-0.87,0.24-1.74,0.48-2.62,0.71
						c-0.14,0.04-0.28,0.08-0.42,0.11c-0.77,0.21-1.54,0.41-2.31,0.62c-5.84,1.56-11.98,3.14-18.71,4.78l17.93-61.46
						c9.56-0.39,18.56-0.97,28.76-1.45L324.44,620.59z"/>
				</defs>
				<clipPath id="SVGID_00000059288543124829448140000011473472295886107788_">
					<use xlink:href="#SVGID_00000089537351676268019130000008833047754897844110_"  style="overflow:visible;"/>
				</clipPath>
				<g style="clip-path:url(#SVGID_00000059288543124829448140000011473472295886107788_);">
					<path class="st1" d="M366.26,642.24C179.77,680.89,20,670.79,9.41,619.68S141.4,495.8,327.89,457.15s346.25-28.56,356.85,22.55
						C695.33,530.81,552.74,603.58,366.26,642.24z M631.91,473.24c-8.18-39.45-143.88-44.67-303.1-11.66S47.14,553.31,55.32,592.76
						c8.18,39.45,143.88,44.67,303.1,11.66C517.64,571.41,640.08,512.68,631.91,473.24z"/>
					<path class="st2" d="M353.07,578.61c-131.95,27.35-244.23,23.92-250.78-7.66c-6.55-31.59,95.11-79.36,227.07-106.72
						c131.95-27.35,244.23-23.92,250.78,7.66C586.68,503.48,485.02,551.26,353.07,578.61z M528.73,472.32
						c-4.92-23.72-93.77-25.37-198.46-3.67s-185.56,58.52-180.65,82.25c4.92,23.72,93.77,25.37,198.46,3.67
						C452.77,532.87,533.65,496.05,528.73,472.32z"/>
					<path class="st3" d="M342.64,528.31c-77.42,16.05-142.85,16.2-146.13,0.33c-3.29-15.86,56.81-41.73,134.23-57.78
						c77.42-16.05,142.85-16.2,146.13-0.33C480.16,486.39,420.06,512.26,342.64,528.31z M425.46,470.96
						c-1.66-8-43.66-6.07-93.81,4.33s-89.46,25.31-87.81,33.32c1.66,8,43.66,6.07,93.81-4.33
						C387.81,493.88,427.12,478.96,425.46,470.96z"/>
				</g>
			</g>
		</g>
	</g>
	<g>
		<path class="st7" d="M671.19,403.4h-13.94v-92.96h13.94V403.4z"/>
		<path class="st7" d="M716.77,403.4l-20.21-57.42v57.42H683.6v-92.96h14.08l19.09,55.19v-55.19h12.96v92.96H716.77z"/>
		<path class="st7" d="M765.55,403.4h-13.94v-80h-14.77v-12.96h43.76v12.96h-15.05V403.4z"/>
		<path class="st7" d="M801.79,403.4h-13.94v-92.96h13.94V403.4z"/>
		<path class="st7" d="M851.69,323.4h-23.55v25.37h17.14v12.96h-17.14v41.67h-13.94v-92.96h37.49V323.4z"/>
		<path class="st7" d="M870.92,382.91l-3.21,20.49h-13.8l15.19-92.96h18.12l16.17,92.96h-14.36l-3.21-20.49H870.92z M878.17,332.87
			l-5.3,37.07h10.87L878.17,332.87z"/>
		<path class="st7" d="M941.59,341.23c0-6.13-0.14-9.62-0.28-11.85c-0.56-4.46-3.48-7.39-7.53-7.39c-3.48,0-6.27,2.51-7.25,6.41
			c-0.42,1.81-0.56,6.55-0.56,13.8v29.55c0,9.34,0.28,12.96,0.98,15.05c1.25,3.21,3.76,5.02,6.83,5.02c4.04,0,6.97-3.21,7.39-7.8
			c0.28-2.51,0.42-8.64,0.42-13.52h14.08v5.3c0,9.76-0.56,13.1-3.21,18.12c-3.48,6.83-10.31,10.87-18.54,10.87
			c-6.55,0-12.54-2.65-16.31-7.39c-4.6-5.58-5.58-10.17-5.58-24.67v-31.5c0-14.63,0.98-19.23,5.58-24.81
			c3.76-4.74,9.62-7.39,16.31-7.39c8.08,0,15.05,3.76,18.54,10.17c2.65,4.6,3.21,7.94,3.21,17v5.02H941.59z"/>
		<path class="st7" d="M1004.44,323.4h-23.97v25.37h17.28v12.96h-17.28v28.71h23.97v12.96h-37.91v-92.96h37.91V323.4z"/>
		<path class="st7" d="M700.46,513.02h-6.83l-2.65-7.39c-3.9,6.41-7.8,8.78-14.63,8.78c-6.69,0-12.26-2.93-15.33-7.94
			c-3.07-5.3-4.18-11.57-4.18-23.14v-32.47c0-14.49,0.98-19.23,5.58-24.81c3.76-4.74,9.76-7.39,16.31-7.39
			c8.08,0,15.05,3.76,18.68,10.31c2.51,4.46,3.07,7.8,3.07,16.72v4.74h-14.08c0-7.39-0.14-9.2-0.28-11.43
			c-0.56-4.46-3.34-7.25-7.53-7.25c-3.76,0-6.27,2.23-7.25,6.41c-0.28,1.67-0.56,6.69-0.56,13.66v29.41
			c0,7.39,0.42,13.24,1.12,15.19c1.12,3.07,3.48,4.88,6.83,4.88c3.76,0,6.27-2.23,7.11-6.27c0.42-1.95,0.7-6.55,0.7-13.8v-3.76h-8.5
			v-11.57h22.44V513.02z"/>
		<path class="st7" d="M730.71,492.54l-3.21,20.49h-13.8l15.19-92.96h18.12l16.17,92.96h-14.36l-3.21-20.49H730.71z M737.95,442.5
			l-5.3,37.07h10.87L737.95,442.5z"/>
		<path class="st7" d="M821.86,513.02v-64.25l-13.38,64.25h-6.27l-14.08-64.25v64.25h-12.96v-92.96h18.68l11.57,56.58l10.59-56.58
			h18.82v92.96H821.86z"/>
		<path class="st7" d="M887.65,433.02h-23.97v25.37h17.28v12.96h-17.28v28.71h23.97v12.96h-37.91v-92.96h37.91V433.02z"/>
		<path class="st7" d="M671.19,580.7v41.95h-13.94v-92.96h13.94v38.05h15.47v-38.05h13.94v92.96h-13.94V580.7H671.19z"/>
		<path class="st7" d="M730.01,602.16l-3.21,20.49h-13.8l15.19-92.96h18.12l16.17,92.96h-14.36l-3.21-20.49H730.01z M737.26,552.13
			l-5.3,37.07h10.87L737.26,552.13z"/>
		<path class="st7" d="M788.41,622.65h-13.94v-92.96h19.51c17.84,0,24.11,7.11,24.11,27.18c0,20.21-6.27,27.32-24.11,27.32h-5.58
			V622.65z M792.87,571.22c9.06,0,11.29-2.93,11.29-14.36c0-11.29-2.23-14.22-11.29-14.22h-4.46v28.57H792.87z"/>
		<path class="st7" d="M854.2,622.65h-13.94v-80h-14.77v-12.96h43.76v12.96H854.2V622.65z"/>
		<path class="st7" d="M892.94,622.65H879v-92.96h13.94V622.65z"/>
		<path class="st7" d="M936.98,560.49c0-6.13-0.14-9.62-0.28-11.85c-0.56-4.46-3.48-7.39-7.53-7.39c-3.48,0-6.27,2.51-7.25,6.41
			c-0.42,1.81-0.56,6.55-0.56,13.8v29.55c0,9.34,0.28,12.96,0.98,15.05c1.25,3.21,3.76,5.02,6.83,5.02c4.04,0,6.97-3.21,7.39-7.8
			c0.28-2.51,0.42-8.64,0.42-13.52h14.08v5.3c0,9.76-0.56,13.1-3.21,18.12c-3.48,6.83-10.31,10.87-18.54,10.87
			c-6.55,0-12.54-2.65-16.31-7.39c-4.6-5.58-5.58-10.17-5.58-24.67v-31.5c0-14.63,0.98-19.23,5.58-24.81
			c3.76-4.74,9.62-7.39,16.31-7.39c8.08,0,15.05,3.76,18.54,10.17c2.65,4.6,3.21,7.94,3.21,17v5.02H936.98z"/>
		<path class="st7" d="M992.04,552.55c-0.84-8.36-3.07-11.29-8.08-11.29c-4.88,0-7.8,3.48-7.8,9.2c0,6.69,2.23,10.17,12.4,19.37
			c14.49,13.24,17.98,19.09,17.98,30.38c0,14.22-8.92,23.83-22.02,23.83c-13.66,0-22.72-9.9-23.14-25.09l13.24-2.37
			c0.42,9.62,3.76,14.49,9.9,14.49c5.3,0,8.5-3.9,8.5-10.17c0-6.83-1.95-9.48-14.36-21.05c-11.99-11.01-16.03-18.26-16.03-28.57
			c0-13.94,8.64-23,21.74-23c12.4,0,19.51,7.53,21.18,22.3L992.04,552.55z"/>
		<path class="st7" d="M671.19,732.28h-13.94v-92.96h19.51c16.17,0,23.28,8.22,23.28,26.9c0,12.13-2.51,18.26-9.34,23.42
			l10.73,42.65h-14.77l-8.78-38.89h-6.69V732.28z M675.65,680.43c4.88,0,6.69-0.7,8.22-3.07c1.39-2.37,2.23-6.13,2.23-11.01
			c0-5.44-0.98-9.48-2.79-11.71c-1.53-1.81-3.21-2.37-7.67-2.37h-4.46v28.15H675.65z"/>
		<path class="st7" d="M757.47,702.04c0,13.8-1.12,18.82-5.58,24.25c-3.76,4.6-9.76,7.39-16.17,7.39c-6.55,0-12.54-2.79-16.31-7.39
			c-4.46-5.44-5.58-10.59-5.58-24.25v-32.47c0-13.66,1.12-18.82,5.58-24.25c3.76-4.6,9.76-7.39,16.31-7.39
			c6.41,0,12.54,2.79,16.17,7.39c4.46,5.44,5.58,10.45,5.58,24.25V702.04z M727.78,700.5c0,9.2,0.28,13.1,0.98,15.19
			c1.25,3.07,3.76,5.02,6.97,5.02c3.48,0,6.27-2.51,7.25-6.41c0.42-1.81,0.56-6.41,0.56-13.8v-29.41c0-9.34-0.28-13.1-0.98-15.19
			c-1.12-3.07-3.76-5.02-6.83-5.02c-3.62,0-6.41,2.51-7.39,6.41c-0.28,1.81-0.56,6.83-0.56,13.8V700.5z"/>
		<path class="st7" d="M815.72,639.32v62.72c0,13.8-1.11,18.82-5.57,24.25c-3.76,4.6-9.76,7.39-16.17,7.39
			c-6.55,0-12.54-2.79-16.31-7.39c-4.46-5.44-5.58-10.59-5.58-24.25v-62.72h13.94v61.18c0,9.2,0.28,13.1,0.98,15.19
			c1.25,3.07,3.76,5.02,6.97,5.02c3.48,0,6.27-2.51,7.25-6.41c0.42-1.81,0.56-6.41,0.56-13.8v-61.18H815.72z"/>
		<path class="st7" d="M854.2,732.28h-13.94v-80h-14.77v-12.96h43.76v12.96H854.2V732.28z"/>
		<path class="st7" d="M916.91,652.28h-23.97v25.37h17.28v12.96h-17.28v28.71h23.97v12.96H879v-92.96h37.91V652.28z"/>
		<path class="st7" d="M943.95,732.28h-13.94v-92.96h19.51c16.17,0,23.28,8.22,23.28,26.9c0,12.13-2.51,18.26-9.34,23.42
			l10.73,42.65h-14.77l-8.78-38.89h-6.69V732.28z M948.41,680.43c4.88,0,6.69-0.7,8.22-3.07c1.39-2.37,2.23-6.13,2.23-11.01
			c0-5.44-0.98-9.48-2.79-11.71c-1.53-1.81-3.21-2.37-7.67-2.37h-4.46v28.15H948.41z"/>
	</g>
	<path class="st5" d="M520.78,527.19l-55.68-55.68c-7.28-7.28-19.08-7.28-26.35,0s-7.28,19.08,0,26.35l23.94,23.57H359.13V417.69
		l23.94,24.13c3.5,3.47,8.24,5.41,13.18,5.38c4.93,0.03,9.67-1.91,13.18-5.38c7.28-7.22,7.33-18.97,0.11-26.25
		c-0.04-0.04-0.07-0.07-0.11-0.11l-55.68-55.68c-3.5-3.47-8.24-5.41-13.18-5.38c-4.87,0.02-9.53,1.95-12.99,5.38l-55.68,55.68
		c-7.28,7.23-7.32,18.98-0.09,26.26s18.98,7.32,26.26,0.09l23.94-23.94v103.56H218.26l24.13-23.94c7.28-7.28,7.28-19.08,0-26.35
		c-7.28-7.28-19.08-7.28-26.35,0l-55.68,55.68c-3.47,3.5-5.41,8.24-5.38,13.18c-0.03,4.93,1.91,9.67,5.38,13.18l55.68,55.68
		c3.5,3.47,8.24,5.41,13.18,5.38c4.93,0.03,9.67-1.91,13.18-5.38c7.28-7.22,7.33-18.97,0.11-26.25c-0.04-0.04-0.07-0.07-0.11-0.11
		l-23.94-23.94h103.56v103.75l-23.94-24.13c-7.28-7.28-19.08-7.28-26.35,0s-7.28,19.08,0,26.35l55.68,55.68
		c3.5,3.47,8.24,5.41,13.18,5.38c4.87-0.02,9.53-1.95,12.99-5.38l55.68-55.68c7.28-7.28,7.28-19.08,0-26.35
		c-7.28-7.28-19.08-7.28-26.35,0l-23.76,23.94V558.56h103.75l-24.13,23.94c-7.28,7.22-7.33,18.97-0.11,26.25
		c0.04,0.04,0.07,0.07,0.11,0.11c3.5,3.47,8.24,5.41,13.18,5.38c4.93,0.03,9.67-1.91,13.18-5.38l55.68-55.68
		c3.47-3.5,5.41-8.24,5.38-13.18C526.09,535.2,524.16,530.61,520.78,527.19z"/>
</g>
</svg>
