<?xml version="1.0" encoding="utf-8"?>
<!-- Generator: Adobe Illustrator 27.9.0, SVG Export Plug-In . SVG Version: 6.00 Build 0)  -->
<svg version="1.1" id="Layer_1" xmlns="http://www.w3.org/2000/svg" xmlns:xlink="http://www.w3.org/1999/xlink" x="0px" y="0px"
	 viewBox="0 0 1080 1080" style="enable-background:new 0 0 1080 1080;" xml:space="preserve">
<style type="text/css">
	.st0{clip-path:url(#SVGID_00000063596507190610788360000005166745778429819285_);}
	.st1{opacity:0.4;fill:#E1F3FC;}
	.st2{opacity:0.6;fill:#E1F3FC;}
	.st3{opacity:0.8;fill:#E1F3FC;}
	.st4{fill:#FFFFFF;}
	.st5{fill:#EB008B;}
	.st6{clip-path:url(#SVGID_00000160170319177066695020000017014748258791661984_);}
	.st7{fill:#3E4C5C;}
	.st8{clip-path:url(#SVGID_00000182525032178814505010000012655714665460838026_);}
	.st9{fill:#8C9BAD;}
	.st10{fill:#111B26;}
	.st11{clip-path:url(#SVGID_00000107567259891512868860000003480721989398824078_);}
	.st12{clip-path:url(#SVGID_00000094608093119671329270000000133224596997879187_);}
	.st13{clip-path:url(#SVGID_00000067936119610121616050000000324447788987057812_);}
</style>
<g>
	<g>
		<defs>
			
				<ellipse id="SVGID_00000004534023062363054190000012371088779265728925_" transform="matrix(0.7071 -0.7071 0.7071 0.7071 -282.8641 397.1054)" cx="337.92" cy="540" rx="272.95" ry="272.95"/>
		</defs>
		
			<use xlink:href="#SVGID_00000004534023062363054190000012371088779265728925_"  style="overflow:visible;fill-rule:evenodd;clip-rule:evenodd;fill:#3C4A5C;"/>
		<clipPath id="SVGID_00000175324070130563557110000014273065656080998793_">
			<use xlink:href="#SVGID_00000004534023062363054190000012371088779265728925_"  style="overflow:visible;"/>
		</clipPath>
		<g style="clip-path:url(#SVGID_00000175324070130563557110000014273065656080998793_);">
			<g>
				<path class="st1" d="M363.61,642.24C177.12,680.89,17.35,670.79,6.76,619.68S138.75,495.8,325.24,457.15
					s346.25-28.56,356.85,22.55S550.09,603.58,363.61,642.24z M629.26,473.24c-8.18-39.45-143.88-44.67-303.1-11.66
					S44.49,553.31,52.67,592.76c8.18,39.45,143.88,44.67,303.1,11.66C514.99,571.41,637.43,512.68,629.26,473.24z"/>
				<path class="st2" d="M350.42,578.61c-131.95,27.35-244.23,23.92-250.78-7.66c-6.55-31.59,95.11-79.36,227.07-106.72
					c131.95-27.35,244.23-23.92,250.78,7.66C584.03,503.48,482.37,551.26,350.42,578.61z M526.08,472.32
					c-4.92-23.72-93.77-25.37-198.46-3.67s-185.56,58.52-180.65,82.25c4.92,23.72,93.77,25.37,198.46,3.67
					C450.12,532.87,531,496.05,526.08,472.32z"/>
				<path class="st3" d="M339.99,528.31c-77.42,16.05-142.85,16.2-146.13,0.33c-3.29-15.86,56.81-41.73,134.23-57.78
					c77.42-16.05,142.85-16.2,146.13-0.33C477.51,486.39,417.41,512.26,339.99,528.31z M422.81,470.96
					c-1.66-8-43.66-6.07-93.81,4.33s-89.46,25.31-87.81,33.32c1.66,8,43.66,6.07,93.81-4.33
					C385.16,493.88,424.47,478.96,422.81,470.96z"/>
			</g>
			<g>
				<g>
					<path class="st9" d="M198.15,442.77c28.23-13.73,56.72-21.51,74.74-21.51c35.95,0,50.84,22.6,50.84,49.3
						c0,22.08-9.24,55.47-18.49,86.28l-21.57,73.96c25.16-6.16,42.11-11.3,65.74-18.49c8.22,9.76,14.38,26.19,16.43,38.52
						c-31.33,22.08-78.06,40.06-107.34,40.06c-35.44,0-51.87-18.49-51.87-43.65c0-16.95,2.57-28.76,12.33-60.09
						c9.76-33.38,28.31-77.23,44.23-113.18c-16.24,4.13-28.96,7.96-43.04,12.42C211.5,474.24,202.07,456.2,198.15,442.77z
						 M261.08,343.2c6.16-29.79,26.71-44.17,55.98-44.17c29.79,0,50.84,8.73,44.68,38c-6.16,29.27-26.71,44.68-55.98,44.68
						C276.49,381.71,254.92,371.96,261.08,343.2z"/>
				</g>
				<g>
					<path class="st10" d="M423.33,452.85c-4.62,18.49-9.24,40.06-10.78,61.12c25.17,0,53.41,0,77.04,0.51
						c-1.03,15.92-8.22,45.19-13.87,60.6c-28.25-0.51-49.3-1.03-72.93-3.08l-12.82,75.63c-15.41,82.69-57.52,138.15-170.51,152.53
						c-8.73-13.87-14.89-40.57-14.38-61.12c31.33-10.78,62.14-16.95,91.93-14.89c10.78-34.92,19-70.87,24.65-102.72l8.71-53.54
						c-22.08,1.03-38.52,2.57-67.28,1.54c0.51-11.3,6.68-44.68,10.27-55.47c19.52-1.03,42.11-0.51,66.76-0.51
						c7.19-73.44,50.33-133.02,154.59-142.77c12.84,14.38,19.52,40.06,18.49,64.71C486.5,446.68,459.28,452.85,423.33,452.85z"/>
				</g>
				<g>
					<path class="st9" d="M302.01,626.12c16.16-4.31,29.96-8.5,47.41-13.81c8.22,9.76,14.38,26.19,16.43,38.52
						c-18.66,13.15-42.78,24.85-65.43,32.16L302.01,626.12z M261.08,343.2c6.16-29.79,26.71-44.17,55.98-44.17
						c29.79,0,50.84,8.73,44.68,38c-6.16,29.27-26.71,44.68-55.98,44.68C276.49,381.71,254.92,371.96,261.08,343.2z"/>
				</g>
			</g>
			<g>
				<defs>
					<path id="SVGID_00000158746277109046118260000000579114553240826807_" d="M418.86,472.06l-74.27,14.43
						c-2.09,8.72-3.56,17.73-4.46,26.96c-7.84,0-15.47-0.05-22.86-0.09c1.87-7.83,3.45-15.39,4.58-22.45l-72.1,14.01
						c-11.98,28.24-23.7,57.99-30.79,82.23c-9.76,31.33-12.33,43.14-12.33,60.09c0,11.59,3.49,21.75,10.71,29.35l171.98-25.72
						c0.21-1.08,0.42-2.15,0.62-3.24L402.78,572c23.62,2.05,44.68,2.57,72.93,3.08c5.65-15.41,12.84-44.68,13.87-60.6
						c-23.62-0.51-51.87-0.51-77.04-0.51C413.57,499.86,415.99,485.54,418.86,472.06z M321.79,620.59
						c-0.65,0.19-1.29,0.38-1.94,0.56c-0.16,0.05-0.33,0.09-0.49,0.14c-0.84,0.24-1.68,0.48-2.53,0.72
						c-0.18,0.05-0.36,0.1-0.54,0.15c-0.71,0.2-1.43,0.41-2.14,0.61c-0.19,0.05-0.37,0.11-0.56,0.16c-0.85,0.24-1.7,0.48-2.56,0.72
						c-0.15,0.04-0.3,0.08-0.46,0.13c-0.74,0.21-1.49,0.41-2.24,0.62c-0.2,0.05-0.39,0.11-0.59,0.16c-0.87,0.24-1.74,0.48-2.62,0.71
						c-0.14,0.04-0.28,0.08-0.42,0.11c-0.77,0.21-1.54,0.41-2.31,0.62c-5.84,1.56-11.98,3.14-18.71,4.78l17.93-61.46
						c9.56-0.39,18.56-0.97,28.76-1.45L321.79,620.59z"/>
				</defs>
				<clipPath id="SVGID_00000178203627268598796270000015683700292003428742_">
					<use xlink:href="#SVGID_00000158746277109046118260000000579114553240826807_"  style="overflow:visible;"/>
				</clipPath>
				<g style="clip-path:url(#SVGID_00000178203627268598796270000015683700292003428742_);">
					<path class="st1" d="M363.61,642.24C177.12,680.89,17.35,670.79,6.76,619.68S138.75,495.8,325.24,457.15
						s346.25-28.56,356.85,22.55S550.09,603.58,363.61,642.24z M629.26,473.24c-8.18-39.45-143.88-44.67-303.1-11.66
						S44.49,553.31,52.67,592.76c8.18,39.45,143.88,44.67,303.1,11.66C514.99,571.41,637.43,512.68,629.26,473.24z"/>
					<path class="st2" d="M350.42,578.61c-131.95,27.35-244.23,23.92-250.78-7.66c-6.55-31.59,95.11-79.36,227.07-106.72
						c131.95-27.35,244.23-23.92,250.78,7.66C584.03,503.48,482.37,551.26,350.42,578.61z M526.08,472.32
						c-4.92-23.72-93.77-25.37-198.46-3.67s-185.56,58.52-180.65,82.25c4.92,23.72,93.77,25.37,198.46,3.67
						C450.12,532.87,531,496.05,526.08,472.32z"/>
					<path class="st3" d="M339.99,528.31c-77.42,16.05-142.85,16.2-146.13,0.33c-3.29-15.86,56.81-41.73,134.23-57.78
						c77.42-16.05,142.85-16.2,146.13-0.33C477.51,486.39,417.41,512.26,339.99,528.31z M422.81,470.96
						c-1.66-8-43.66-6.07-93.81,4.33s-89.46,25.31-87.81,33.32c1.66,8,43.66,6.07,93.81-4.33
						C385.16,493.88,424.47,478.96,422.81,470.96z"/>
				</g>
			</g>
		</g>
	</g>
	<g>
		<path class="st7" d="M668.54,530.71h-13.94v-92.96h13.94V530.71z"/>
		<path class="st7" d="M715.23,530.71l-20.21-57.42v57.42h-12.96v-92.96h14.08l19.09,55.19v-55.19h12.96v92.96H715.23z"/>
		<path class="st7" d="M765.13,530.71h-13.94v-80h-14.77v-12.96h43.76v12.96h-15.05V530.71z"/>
		<path class="st7" d="M802.48,530.71h-13.94v-92.96h13.94V530.71z"/>
		<path class="st7" d="M853.5,450.71h-23.55v25.37h17.14v12.96h-17.14v41.67H816v-92.96h37.49V450.71z"/>
		<path class="st7" d="M873.85,510.22l-3.21,20.49h-13.8l15.19-92.96h18.12l16.17,92.96h-14.36l-3.21-20.49H873.85z M881.09,460.18
			l-5.3,37.07h10.87L881.09,460.18z"/>
		<path class="st7" d="M945.63,468.55c0-6.13-0.14-9.62-0.28-11.85c-0.56-4.46-3.48-7.39-7.53-7.39c-3.48,0-6.27,2.51-7.25,6.41
			c-0.42,1.81-0.56,6.55-0.56,13.8v29.55c0,9.34,0.28,12.96,0.98,15.05c1.25,3.21,3.76,5.02,6.83,5.02c4.04,0,6.97-3.21,7.39-7.81
			c0.28-2.51,0.42-8.64,0.42-13.52h14.08v5.3c0,9.76-0.56,13.1-3.21,18.12c-3.48,6.83-10.31,10.87-18.54,10.87
			c-6.55,0-12.54-2.65-16.31-7.39c-4.6-5.57-5.58-10.17-5.58-24.67v-31.5c0-14.63,0.98-19.23,5.58-24.81
			c3.76-4.74,9.62-7.39,16.31-7.39c8.08,0,15.05,3.76,18.54,10.17c2.65,4.6,3.21,7.94,3.21,17v5.02H945.63z"/>
		<path class="st7" d="M1009.6,450.71h-23.97v25.37h17.28v12.96h-17.28v28.71h23.97v12.96h-37.91v-92.96h37.91V450.71z"/>
		<path class="st7" d="M654.61,547.37h19.79c16.03,0,23.55,8.36,23.55,26.2v40.56c0,17.84-7.53,26.2-23.55,26.2h-19.79V547.37z
			 M672.86,627.37c3.9,0,6.97-1.25,8.78-3.62c1.81-2.51,2.37-5.3,2.37-12.26v-35.26c0-6.97-0.56-9.76-2.37-12.26
			c-1.81-2.37-4.88-3.62-8.78-3.62h-4.32v67.04H672.86z"/>
		<path class="st7" d="M747.15,560.33h-23.97v25.37h17.28v12.96h-17.28v28.71h23.97v12.96h-37.91v-92.96h37.91V560.33z"/>
		<path class="st7" d="M784.64,570.23c-0.84-8.36-3.07-11.29-8.08-11.29c-4.88,0-7.8,3.48-7.8,9.2c0,6.69,2.23,10.17,12.4,19.37
			c14.49,13.24,17.98,19.09,17.98,30.38c0,14.22-8.92,23.83-22.02,23.83c-13.66,0-22.72-9.9-23.14-25.09l13.24-2.37
			c0.42,9.62,3.76,14.49,9.9,14.49c5.3,0,8.5-3.9,8.5-10.17c0-6.83-1.95-9.48-14.36-21.05c-11.99-11.01-16.03-18.26-16.03-28.57
			c0-13.94,8.64-23,21.74-23c12.4,0,19.51,7.53,21.18,22.3L784.64,570.23z"/>
		<path class="st7" d="M822,547.37v37.21l16.45-37.21h14.63l-16.03,32.33l18.12,60.63h-14.91l-11.85-43.21L822,609.95v30.38h-13.94
			v-92.96H822z"/>
		<path class="st7" d="M889.45,640.33h-13.94v-80h-14.77v-12.96h43.76v12.96h-15.05V640.33z"/>
		<path class="st7" d="M955.79,610.09c0,13.8-1.12,18.82-5.58,24.25c-3.76,4.6-9.76,7.39-16.17,7.39c-6.55,0-12.54-2.79-16.31-7.39
			c-4.46-5.44-5.58-10.59-5.58-24.25v-32.47c0-13.66,1.12-18.82,5.58-24.25c3.76-4.6,9.76-7.39,16.31-7.39
			c6.41,0,12.54,2.79,16.17,7.39c4.46,5.44,5.58,10.45,5.58,24.25V610.09z M926.11,608.56c0,9.2,0.28,13.1,0.98,15.19
			c1.25,3.07,3.76,5.02,6.97,5.02c3.48,0,6.27-2.51,7.25-6.41c0.42-1.81,0.56-6.41,0.56-13.8v-29.41c0-9.34-0.28-13.1-0.98-15.19
			c-1.11-3.07-3.76-5.02-6.83-5.02c-3.62,0-6.41,2.51-7.39,6.41c-0.28,1.81-0.56,6.83-0.56,13.8V608.56z"/>
		<path class="st7" d="M981.16,640.33h-13.94v-92.96h19.51c17.84,0,24.11,7.11,24.11,27.18c0,20.21-6.27,27.32-24.11,27.32h-5.58
			V640.33z M985.62,588.91c9.06,0,11.29-2.93,11.29-14.36c0-11.29-2.23-14.22-11.29-14.22h-4.46v28.57H985.62z"/>
	</g>
	<g>
		<path class="st5" d="M459,488.07c-21.95,0.06-41.49,13.92-48.81,34.62H182.06c-9.56,0-17.31,7.75-17.31,17.31
			s7.75,17.31,17.31,17.31h228.13c9.56,27.04,39.23,41.21,66.27,31.65c27.04-9.56,41.21-39.23,31.65-66.27
			C500.75,501.89,481.06,488.01,459,488.07z"/>
		<path class="st5" d="M182.06,453.46h20.42c9.78,26.96,39.57,40.88,66.53,31.09c14.46-5.25,25.85-16.64,31.09-31.09h193.51
			c9.56,0,17.31-7.75,17.31-17.31s-7.75-17.31-17.31-17.31H300.1c-9.78-26.96-39.57-40.88-66.53-31.09
			c-14.46,5.25-25.85,16.64-31.09,31.09h-20.42c-9.56,0-17.31,7.75-17.31,17.31S172.5,453.46,182.06,453.46z"/>
		<path class="st5" d="M493.62,626.54H369.34c-9.78-26.96-39.57-40.88-66.53-31.09c-14.46,5.25-25.85,16.64-31.09,31.09h-89.66
			c-9.56,0-17.31,7.75-17.31,17.31c0,9.56,7.75,17.31,17.31,17.31h89.66c9.78,26.96,39.57,40.88,66.53,31.09
			c14.46-5.25,25.85-16.64,31.09-31.09h124.28c9.56,0,17.31-7.75,17.31-17.31C510.92,634.29,503.17,626.54,493.62,626.54z"/>
	</g>
</g>
</svg>
